<svg version="1.0" xmlns="http://www.w3.org/2000/svg" width="933.3333" height="933.3333" viewBox="0 0 700 700"><path d="M285.8.5c-.2.1-3.4.5-7.3.9-19.3 1.6-48.3 8.2-67.4 15.2C137.9 43.5 79.5 99.6 50.5 171c-5.8 14.4-12.2 35.7-14.1 47-3.3 19.3-3.3 18.8-4 26.5-1.3 15.1-1.9 48.7-1 58.5.9 9.5 1.8 17.3 2.2 19.3.4 2.3 1.1 6.3 1.8 10.7 1.5 9.4 4.7 23.8 6.5 29 .5 1.4 1.7 5.2 2.6 8.5 3.4 11.4 10.7 30.1 17 43.2 7.9 16.5 14.8 28.2 29.5 50.3 17.7 26.5 26.9 42.8 36.3 64 11 25.1 19.2 53.5 22.2 77.5.2 2.2.7 5.8 1 8 .8 6 1.3 10.3 2 18 .3 3.8.8 8.3 1 10 .6 4.9 1.7 29.9 1.9 44.5l.2 13.5 158.9.3 159 .2v-70.2c-.1-38.7.1-70.9.3-71.6.3-.9 12.7-1.2 57.2-1.2h56.8v-63.6c0-40.8.4-63.9 1-64.3.6-.3 18.8-.6 40.6-.5 21.8 0 39.6-.2 39.6-.5s-.8-2-1.8-3.6c-1.8-3-3-5.1-13.2-23.5-2.9-5.2-6.2-11.3-7.5-13.5-1.2-2.2-16.5-29.8-34-61.3-17.5-31.6-31.9-58.6-32-60-.2-1.5-.6-7.2-1-12.7-1.7-26-7.2-51.4-16.9-78-4.4-12-18.1-38.5-26-50.5-4.2-6.3-7.6-11.7-7.6-12.1 0-.4-.4-.9-.8-1.1-.4-.2-2.4-2.5-4.4-5.1-8.6-11.3-27.5-31.1-38.9-40.8C442 29.7 392.1 8.3 335 1.4c-5.5-.6-48.5-1.5-49.2-.9zm40.1 86.1c.5.5 1.2 2.8 1.5 5.1.3 2.2.7 5.2 1 6.5.3 1.2.8 4.1 1.2 6.3.3 2.2.8 5.3 1 7 .6 3.5 2.3 13 2.9 16.1.4 1.7 2.1 2.5 8.8 4.3 9.1 2.4 24.6 9 32.6 13.9l5 3.1 18.2-13 18.3-13 16.8 16.8c9.2 9.2 16.8 17.2 16.8 17.6 0 .5-4.9 7.7-10.8 16-16.2 22.6-14.9 19.8-11.5 25.4 6.1 10 11.7 23.8 15.3 37 .6 2.4 1.4 4.3 1.8 4.4.4 0 1.6.2 2.7.4s3.8.6 6.1 1c2.2.3 5.2.8 6.5 1 10.6 1.8 26.7 4.5 27.2 4.5.3 0 .5 10.9.5 24.3v24.3l-11.2 1.8c-6.1 1-12 2-13.1 2.2-1.1.3-3.3.7-5 .9-14.3 2.5-15.3 2.9-15.6 6-.2 2.3-.8 4.5-3.9 13.5-1.8 5.2-3.5 9.7-3.9 10-.3.3-2.7 4.7-5.3 9.9l-4.8 9.4 2.8 4.1c1.5 2.3 7.1 10.3 12.5 17.8 5.3 7.5 9.7 14 9.7 14.4 0 1.1-32.6 33.4-33.8 33.4-.6 0-7.6-4.6-15.4-10.3-7.9-5.6-15.7-11.2-17.4-12.4-2.9-2.1-3.2-2.1-6-.6-10.8 6-21.5 10.8-31.7 14-9.2 3-11.9 4.2-12.2 5.8-.6 2.6-1 4.8-4.2 24.8l-2.7 16.7-24.4-.2-24.5-.3-.3-2.5c-.2-1.4-1.3-8.1-2.5-15s-2.2-13.2-2.3-14c-1.6-11.4-1.8-12-4.5-12.6-9.9-2-25.6-8.1-36.1-14l-8-4.5-5.8 4.3c-3.1 2.4-8.2 6-11.2 8.1-3 2.1-8.6 6-12.3 8.6l-6.8 4.8-17-16.9c-9.3-9.4-16.9-17.2-16.9-17.3 0-.2 5.6-8.3 12.5-17.9 6.9-9.6 12.5-17.9 12.5-18.4s-1.8-4.1-4-7.8c-4.6-7.9-11.2-24.3-13.1-32.6-1.4-6.1-1.2-6-9.9-7.3-1.9-.3-5.7-1-8.5-1.5-2.7-.5-6.8-1.2-9-1.5-3.9-.5-11.2-1.7-12.7-2.1-.5-.1-1.8-.2-3-.3l-2.3-.1v-48.7l16-2.7c24.3-4.1 27.6-4.8 28-6 2.5-8.7 6.1-19.4 7.1-21.5.8-1.4 1.4-3.1 1.4-3.6 0-.6 2.4-5.3 5.3-10.6l5.3-9.7-6.5-9c-3.6-5-7.3-10-8.1-11.2-.8-1.2-3.3-4.7-5.6-7.8-2.2-3.2-4.4-6.3-4.8-7-.5-.8 5.1-7 16.3-18.3l17.1-17.1 4.8 3.5c2.6 1.9 10.7 7.7 18 13l13.4 9.6 4.8-3c8.1-5 27.9-13.3 34.6-14.5 4.8-.9 7.4-2.4 7.5-4.4.1-1.1.2-2.3.3-2.8.1-.4.6-3 1.1-5.7.4-2.8 1-5.7 1.1-6.5.2-.8.6-3.5 1-6 .7-5.2.9-6.4 2.4-14.5l1.1-6 23.5.1c12.9 0 23.8.5 24.3 1z"/><path d="M294.6 199.2c-23.9 3.1-43 15.3-54.7 34.9-4.7 7.9-7.3 14.8-9.1 24.9-6.8 36.5 15.9 72.1 52.7 82.7 6.4 1.8 25.6 2.6 31.5 1.2 2.5-.6 5.3-1.2 6.3-1.4 3.9-.8 6.4-1.8 13.1-5.2 24.3-12.2 39.7-36.3 40-62.8.2-13.5-1.1-20.4-5.5-30.2-1-2.4-1.9-4.5-1.9-4.8 0-.3-2.1-3.7-4.6-7.5-11.4-17.4-32.6-30.2-52.4-31.6-3.6-.3-7.2-.6-8-.7-.8-.2-4.2.1-7.4.5z"/></svg>